<?xml version="1.0" encoding="iso-8859-1"?>
<!-- Generator: Adobe Illustrator 18.0.0, SVG Export Plug-In . SVG Version: 6.00 Build 0)  -->
<!DOCTYPE svg PUBLIC "-//W3C//DTD SVG 1.1//EN" "http://www.w3.org/Graphics/SVG/1.1/DTD/svg11.dtd">
<svg version="1.1" id="Capa_1" xmlns="http://www.w3.org/2000/svg" xmlns:xlink="http://www.w3.org/1999/xlink" x="0px" y="0px"
	 viewBox="0 0 312 312" style="enable-background:new 0 0 312 312;" xml:space="preserve">
<g>
	<path d="M297.514,156l13.678-21.042c0.999-1.538,1.077-3.499,0.202-5.11c-0.875-1.612-2.561-2.615-4.395-2.615h-92.257
		C203.793,104.872,181.088,90.6,156,90.6s-47.793,14.272-58.743,36.632H5c-1.856,0-3.559,1.028-4.424,2.67
		c-0.865,1.642-0.749,3.628,0.3,5.158L15.238,156L0.876,176.939c-1.049,1.53-1.165,3.517-0.3,5.158
		c0.865,1.642,2.568,2.67,4.424,2.67h92.257c10.95,22.36,33.655,36.632,58.743,36.632s47.793-14.272,58.743-36.632H307
		c1.833,0,3.52-1.003,4.395-2.615c0.875-1.611,0.797-3.572-0.202-5.11L297.514,156z M206.941,177.798
		C198.194,198.21,178.198,211.4,156,211.4s-42.194-13.189-50.941-33.602c-0.788-1.839-2.596-3.031-4.596-3.031H14.492l10.933-15.939
		c1.168-1.704,1.168-3.952,0-5.656l-10.933-15.939h85.971c2,0,3.808-1.192,4.596-3.031C113.806,113.789,133.802,100.6,156,100.6
		s42.194,13.189,50.941,33.602c0.788,1.839,2.596,3.031,4.596,3.031h86.25l-10.428,16.042c-1.077,1.657-1.077,3.793,0,5.45
		l10.428,16.042h-86.25C209.537,174.768,207.729,175.959,206.941,177.798z"/>
	<path d="M156,108c-26.467,0-48,21.533-48,48s21.533,48,48,48s48-21.533,48-48S182.467,108,156,108z M156,194
		c-20.953,0-38-17.047-38-38s17.047-38,38-38s38,17.047,38,38S176.953,194,156,194z"/>
</g>
<g>
</g>
<g>
</g>
<g>
</g>
<g>
</g>
<g>
</g>
<g>
</g>
<g>
</g>
<g>
</g>
<g>
</g>
<g>
</g>
<g>
</g>
<g>
</g>
<g>
</g>
<g>
</g>
<g>
</g>
</svg>
